<?xml version="1.0" encoding="UTF-8" standalone="no"?>
<svg
   xmlns:dc="http://purl.org/dc/elements/1.1/"
   xmlns:cc="http://creativecommons.org/ns#"
   xmlns:rdf="http://www.w3.org/1999/02/22-rdf-syntax-ns#"
   xmlns:svg="http://www.w3.org/2000/svg"
   xmlns="http://www.w3.org/2000/svg"
   xmlns:sodipodi="http://sodipodi.sourceforge.net/DTD/sodipodi-0.dtd"
   xmlns:inkscape="http://www.inkscape.org/namespaces/inkscape"
   viewBox="0 0 100 100"
   preserveAspectRatio="none"
   version="1.1"
   id="svg6131"
   sodipodi:docname="landing_paper.svg"
   inkscape:version="0.92.4 (5da689c313, 2019-01-14)">
  <metadata
     id="metadata6137">
    <rdf:RDF>
      <cc:Work
         rdf:about="">
        <dc:format>image/svg+xml</dc:format>
        <dc:type
           rdf:resource="http://purl.org/dc/dcmitype/StillImage" />
        <dc:title></dc:title>
      </cc:Work>
    </rdf:RDF>
  </metadata>
  <defs
     id="defs6135">
    <filter
       inkscape:collect="always"
       style="color-interpolation-filters:sRGB"
       id="filter6789"
       x="-0.0216"
       width="1.0432"
       y="-0.027"
       height="1.054">
      <feGaussianBlur
         inkscape:collect="always"
         stdDeviation="0.9"
         id="feGaussianBlur6791" />
    </filter>
    <filter
       inkscape:collect="always"
       style="color-interpolation-filters:sRGB"
       id="filter6823"
       x="-0.0216"
       width="1.0432"
       y="-0.027"
       height="1.054">
      <feGaussianBlur
         inkscape:collect="always"
         stdDeviation="0.9"
         id="feGaussianBlur6825" />
    </filter>
  </defs>
  <sodipodi:namedview
     pagecolor="#ffffff"
     bordercolor="#666666"
     borderopacity="1"
     objecttolerance="10"
     gridtolerance="10"
     guidetolerance="10"
     inkscape:pageopacity="0"
     inkscape:pageshadow="2"
     inkscape:window-width="640"
     inkscape:window-height="480"
     id="namedview6133"
     showgrid="false"
     inkscape:pagecheckerboard="true"
     inkscape:zoom="5.92"
     inkscape:cx="20.468878"
     inkscape:cy="58.305009"
     inkscape:current-layer="layer2" />
  <g
     inkscape:groupmode="layer"
     id="layer1"
     inkscape:label="upper"
     style="display:inline">
    <path
       d="M 0,0 V 80 Q 40,80 50,50 60,20 100,20 V 0 Z"
       id="path6129"
       style="fill:#008080"
       inkscape:connector-curvature="0" />
  </g>
  <g
     inkscape:groupmode="layer"
     id="layer2"
     inkscape:label="lower"
     style="display:inline">
    <path
       id="path6787"
       d="M 100,19 C 73.333333,19 56.666667,29 50,49 43.333333,69 26.666667,79 0,79 v 20 h 100 z"
       style="opacity:0.8;fill:#000000;fill-opacity:1;stroke:none;stroke-width:0.30000001;stroke-miterlimit:4;stroke-dasharray:none;stroke-opacity:1;filter:url(#filter6789)"
       inkscape:connector-curvature="0" />
    <path
       style="opacity:1;fill:#ff6600;fill-opacity:1;stroke:none;stroke-width:0.30000001;stroke-miterlimit:4;stroke-dasharray:none;stroke-opacity:1"
       d="M 100,20 C 73.333333,20 56.666667,30 50,50 43.333333,70 26.666667,80 0,80 v 20 h 100 z"
       id="rect6218"
       inkscape:connector-curvature="0" />
    <path
       sodipodi:nodetypes="czsscccc"
       style="opacity:0.8;fill:#000000;fill-opacity:1;stroke:none;stroke-width:0.30000001;stroke-miterlimit:4;stroke-dasharray:none;stroke-opacity:1;filter:url(#filter6823)"
       d="M 100,19 C 82.876456,39.945946 91.475674,20.987665 76.757855,25.744531 62.040036,30.501397 73.065215,43.837574 69.478422,46.296776 62.185862,51.296751 57.380004,39.022151 54.054054,49 47.387387,69 26.666667,79 0,79 v 20 h 100 z"
       id="path6821"
       inkscape:connector-curvature="0" />
    <path
       inkscape:connector-curvature="0"
       id="path6819"
       d="M 100,20 C 82.876456,40.945946 91.475674,21.987665 76.757855,26.744531 62.040036,31.501397 73.065215,44.837574 69.478422,47.296776 62.185862,52.296751 57.380004,40.022151 54.054054,50 47.387387,70 26.666667,80 0,80 v 20 h 100 z"
       style="opacity:1;fill:#aa4400;fill-opacity:1;stroke:none;stroke-width:0.30000001;stroke-miterlimit:4;stroke-dasharray:none;stroke-opacity:1"
       sodipodi:nodetypes="czsscccc" />
  </g>
</svg>
