<?xml version="1.0" encoding="UTF-8" standalone="no"?>
<svg
   xmlns:dc="http://purl.org/dc/elements/1.1/"
   xmlns:cc="http://creativecommons.org/ns#"
   xmlns:rdf="http://www.w3.org/1999/02/22-rdf-syntax-ns#"
   xmlns:svg="http://www.w3.org/2000/svg"
   xmlns="http://www.w3.org/2000/svg"
   xmlns:sodipodi="http://sodipodi.sourceforge.net/DTD/sodipodi-0.dtd"
   xmlns:inkscape="http://www.inkscape.org/namespaces/inkscape"
   viewBox="0 0 100 100"
   preserveAspectRatio="none"
   version="1.1"
   id="svg6131"
   sodipodi:docname="stream.svg"
   inkscape:version="0.92.4 (5da689c313, 2019-01-14)">
  <metadata
     id="metadata6137">
    <rdf:RDF>
      <cc:Work
         rdf:about="">
        <dc:format>image/svg+xml</dc:format>
        <dc:type
           rdf:resource="http://purl.org/dc/dcmitype/StillImage" />
        <dc:title></dc:title>
      </cc:Work>
    </rdf:RDF>
  </metadata>
  <defs
     id="defs6135">
    <filter
       inkscape:collect="always"
       style="color-interpolation-filters:sRGB"
       id="filter985"
       x="-0.020963438"
       width="1.0419269"
       y="-0.028065265"
       height="1.0561305">
      <feGaussianBlur
         inkscape:collect="always"
         stdDeviation="0.87347656"
         id="feGaussianBlur987" />
    </filter>
    <filter
       inkscape:collect="always"
       style="color-interpolation-filters:sRGB"
       id="filter991"
       x="-0.020892187"
       width="1.0417844"
       y="-0.028193991"
       height="1.056388">
      <feGaussianBlur
         inkscape:collect="always"
         stdDeviation="0.87050781"
         id="feGaussianBlur993" />
    </filter>
    <filter
       inkscape:collect="always"
       style="color-interpolation-filters:sRGB"
       id="filter1069"
       x="-0.019402734"
       width="1.0388055"
       y="-0.031452272"
       height="1.0629045">
      <feGaussianBlur
         inkscape:collect="always"
         stdDeviation="0.80844726"
         id="feGaussianBlur1071" />
    </filter>
    <filter
       inkscape:collect="always"
       style="color-interpolation-filters:sRGB"
       id="filter1075"
       x="-0.020790457"
       width="1.0415809"
       y="-0.0283814"
       height="1.0567628">
      <feGaussianBlur
         inkscape:collect="always"
         stdDeviation="0.86626905"
         id="feGaussianBlur1077" />
    </filter>
    <filter
       inkscape:collect="always"
       style="color-interpolation-filters:sRGB"
       id="filter2509"
       x="-0.108"
       width="1.216"
       y="-0.0864"
       height="1.1728">
      <feGaussianBlur
         inkscape:collect="always"
         stdDeviation="0.36"
         id="feGaussianBlur2511" />
    </filter>
  </defs>
  <sodipodi:namedview
     pagecolor="#ffffff"
     bordercolor="#666666"
     borderopacity="1"
     objecttolerance="10"
     gridtolerance="10"
     guidetolerance="10"
     inkscape:pageopacity="0"
     inkscape:pageshadow="2"
     inkscape:window-width="640"
     inkscape:window-height="480"
     id="namedview6133"
     showgrid="false"
     inkscape:pagecheckerboard="true"
     inkscape:zoom="5.92"
     inkscape:cx="20.468878"
     inkscape:cy="59.052435"
     inkscape:current-layer="layer2" />
  <g
     inkscape:groupmode="layer"
     id="layer1"
     inkscape:label="upper"
     style="display:inline">
    <path
       inkscape:connector-curvature="0"
       style="display:inline;fill:#37abc8;fill-opacity:1"
       id="path972"
       d="m 0,0 v 60.574324 c 26.666667,0 37.262679,-15.383587 40.371622,-25.101351 C 49.477175,7.0113259 73.333333,0.999649 100,0.999649 V 0 Z"
       sodipodi:nodetypes="ccsccc" />
    <path
       inkscape:connector-curvature="0"
       id="path989"
       d="m 100,4.38e-4 c -26.666667,0 -50.523353,6.0110092 -59.628906,34.472656 C 37.262151,44.190858 26.666667,59.574657 0,59.574657 V 74.102 c 26.666667,0 43.333333,-10.675781 50,-30.675781 6.666667,-20 23.333333,-39.1210935 50,-39.1210935 z"
       style="display:inline;opacity:0.8;fill:#000000;filter:url(#filter991)" />
    <path
       style="display:inline;fill:#006680"
       d="M 100,1 C 73.333333,1 49.476647,7.0110092 40.371094,35.472656 37.262151,45.19042 26.666667,60.574219 0,60.574219 v 14.527343 c 26.666667,0 43.333333,-10.675781 50,-30.675781 6.666667,-20 23.333333,-39.1210935 50,-39.1210935 z"
       id="path965"
       inkscape:connector-curvature="0" />
    <path
       inkscape:connector-curvature="0"
       id="path975"
       d="m 100,4.3046875 c -26.666667,0 -43.333333,19.1210935 -50,39.1210935 -6.666667,20 -23.333333,30.675781 -50,30.675781 V 79 C 26.666667,79 43.333333,69 50,49 56.666667,29 73.333333,19 100,19 Z"
       style="display:inline;opacity:0.8;fill:#000000;filter:url(#filter985)" />
  </g>
  <g
     inkscape:groupmode="layer"
     id="layer2"
     inkscape:label="lower"
     style="display:inline">
    <path
       style="display:inline;opacity:1;fill:#37abc8;fill-opacity:1;stroke:none;stroke-width:0.30000001;stroke-miterlimit:4;stroke-dasharray:none;stroke-opacity:1"
       d="M 100,20 C 73.333334,20 56.666664,30 50.000004,50 43.333333,70 26.666667,80 0,80 v 20 h 100 z"
       id="rect6218-3"
       inkscape:connector-curvature="0" />
    <path
       id="path1073"
       d="m 100,22.857187 c -11.737602,0 -18.549033,1.40378 -23.748047,6.408203 -5.199014,5.004423 -3.186644,16.572048 -6.773437,19.03125 -7.29256,4.999975 -12.097878,-7.274724 -15.423828,2.703125 C 47.38802,70.999765 26.666667,82.689218 0,82.689218 v 3.208985 c 26.666667,0 34.88802,21.757817 41.554688,1.757812 6.666666,-20 31.778645,-44.021484 58.445312,-44.021484 z"
       style="display:inline;opacity:0.8;fill:#000000;fill-opacity:1;stroke:none;stroke-width:0.30000001;stroke-miterlimit:4;stroke-dasharray:none;stroke-opacity:1;filter:url(#filter1075)"
       inkscape:connector-curvature="0" />
    <path
       style="display:inline;opacity:1;fill:#006680;fill-opacity:1;stroke:none;stroke-width:0.30000001;stroke-miterlimit:4;stroke-dasharray:none;stroke-opacity:1"
       d="m 100,21.857422 c -11.737602,0 -18.549033,1.40378 -23.748047,6.408203 -5.199014,5.004423 -3.186644,16.572048 -6.773437,19.03125 C 62.185956,52.29685 57.380638,40.022151 54.054688,50 47.38802,70 26.666667,81.689453 0,81.689453 v 3.208985 c 26.666667,0 34.88802,21.757822 41.554688,1.757812 6.666666,-20 31.778645,-44.021484 58.445312,-44.021484 z"
       id="path6819"
       inkscape:connector-curvature="0" />
    <path
       id="path1067"
       d="m 100,20.999547 c -26.666667,0 -43.333333,10 -50,30 -6.666667,20 -23.333333,30 -50,30 V 82.689 c 26.666667,0 47.38802,-11.689453 54.054688,-31.689453 3.32595,-9.977849 8.131268,2.29685 15.423828,-2.703125 3.586793,-2.459202 1.574423,-14.026827 6.773437,-19.03125 C 81.450967,24.260749 88.262398,22.856969 100,22.856969 Z"
       style="display:inline;opacity:0.8;fill:#000000;fill-opacity:1;stroke:none;stroke-width:0.30000001;stroke-miterlimit:4;stroke-dasharray:none;stroke-opacity:1;filter:url(#filter1069)"
       inkscape:connector-curvature="0" />
    <path
       style="display:inline;opacity:1;fill:#004455;fill-opacity:1;stroke:none;stroke-width:0.30000001;stroke-miterlimit:4;stroke-dasharray:none;stroke-opacity:1"
       d="M 100 5.3046875 C 73.333333 5.3046875 56.666667 24.425781 50 44.425781 C 43.333333 64.425781 26.666667 75.101562 0 75.101562 L 0 80 L 0 81.689453 C 26.666667 81.689453 47.388019 70 54.054688 50 C 57.380637 40.022151 62.185956 52.29685 69.478516 47.296875 C 73.065309 44.837673 71.052939 33.270048 76.251953 28.265625 C 81.450967 23.261202 88.262398 21.857422 100 21.857422 L 100 20 L 100 5.3046875 z "
       id="rect6218" />
    <ellipse
       ry="5"
       rx="4"
       cy="72"
       cx="70"
       id="ellipse1743"
       style="opacity:0.8;fill:#000000;fill-opacity:1;stroke:none;stroke-width:0.30000001;stroke-miterlimit:4;stroke-dasharray:none;stroke-opacity:1;filter:url(#filter2509)" />
    <ellipse
       style="opacity:1;fill:#004455;fill-opacity:1;stroke:none;stroke-width:0.30000001;stroke-miterlimit:4;stroke-dasharray:none;stroke-opacity:1"
       id="path1741"
       cx="70"
       cy="71"
       rx="4"
       ry="5" />
  </g>
</svg>
