<?xml version="1.0" encoding="UTF-8" standalone="no"?>
<svg
   xmlns:dc="http://purl.org/dc/elements/1.1/"
   xmlns:cc="http://creativecommons.org/ns#"
   xmlns:rdf="http://www.w3.org/1999/02/22-rdf-syntax-ns#"
   xmlns:svg="http://www.w3.org/2000/svg"
   xmlns="http://www.w3.org/2000/svg"
   xmlns:sodipodi="http://sodipodi.sourceforge.net/DTD/sodipodi-0.dtd"
   xmlns:inkscape="http://www.inkscape.org/namespaces/inkscape"
   viewBox="0 0 100 100"
   preserveAspectRatio="none"
   version="1.1"
   id="svg6131"
   sodipodi:docname="valley.svg"
   inkscape:version="0.92.4 (5da689c313, 2019-01-14)">
  <metadata
     id="metadata6137">
    <rdf:RDF>
      <cc:Work
         rdf:about="">
        <dc:format>image/svg+xml</dc:format>
        <dc:type
           rdf:resource="http://purl.org/dc/dcmitype/StillImage" />
        <dc:title></dc:title>
      </cc:Work>
    </rdf:RDF>
  </metadata>
  <defs
     id="defs6135">
    <filter
       inkscape:collect="always"
       style="color-interpolation-filters:sRGB"
       id="filter6789"
       x="-0.0216"
       width="1.0432"
       y="-0.027"
       height="1.054">
      <feGaussianBlur
         inkscape:collect="always"
         stdDeviation="0.9"
         id="feGaussianBlur6791" />
    </filter>
    <filter
       inkscape:collect="always"
       style="color-interpolation-filters:sRGB"
       id="filter880"
       x="-0.021377027"
       width="1.0427541"
       y="-0.02735668"
       height="1.0547134">
      <feGaussianBlur
         inkscape:collect="always"
         stdDeviation="0.89070946"
         id="feGaussianBlur882" />
    </filter>
    <filter
       inkscape:collect="always"
       style="color-interpolation-filters:sRGB"
       id="filter888"
       x="-0.018883784"
       width="1.0377676"
       y="-0.032918728"
       height="1.0658375">
      <feGaussianBlur
         inkscape:collect="always"
         stdDeviation="0.78682432"
         id="feGaussianBlur890" />
    </filter>
    <filter
       inkscape:collect="always"
       style="color-interpolation-filters:sRGB"
       id="filter985"
       x="-0.020963438"
       width="1.0419269"
       y="-0.028065265"
       height="1.0561305">
      <feGaussianBlur
         inkscape:collect="always"
         stdDeviation="0.87347656"
         id="feGaussianBlur987" />
    </filter>
    <filter
       inkscape:collect="always"
       style="color-interpolation-filters:sRGB"
       id="filter991"
       x="-0.020892187"
       width="1.0417844"
       y="-0.028193991"
       height="1.056388">
      <feGaussianBlur
         inkscape:collect="always"
         stdDeviation="0.87050781"
         id="feGaussianBlur993" />
    </filter>
  </defs>
  <sodipodi:namedview
     pagecolor="#ffffff"
     bordercolor="#666666"
     borderopacity="1"
     objecttolerance="10"
     gridtolerance="10"
     guidetolerance="10"
     inkscape:pageopacity="0"
     inkscape:pageshadow="2"
     inkscape:window-width="640"
     inkscape:window-height="480"
     id="namedview6133"
     showgrid="false"
     inkscape:pagecheckerboard="true"
     inkscape:zoom="5.92"
     inkscape:cx="20.468878"
     inkscape:cy="59.052435"
     inkscape:current-layer="layer3" />
  <g
     inkscape:groupmode="layer"
     id="layer3"
     inkscape:label="temp"
     style="display:inline">
    <path
       inkscape:connector-curvature="0"
       id="path989"
       d="m 100,4.38e-4 c -26.666667,0 -50.523353,6.0110092 -59.628906,34.472656 C 37.262151,44.190858 26.666667,59.574657 0,59.574657 V 74.102 c 26.666667,0 43.333333,-10.675781 50,-30.675781 6.666667,-20 23.333333,-39.1210935 50,-39.1210935 z"
       style="display:inline;opacity:0.8;fill:#000000;filter:url(#filter991)" />
    <path
       style="display:inline;fill:#006680"
       d="M 100,1 C 73.333333,1 49.476647,7.0110092 40.371094,35.472656 37.262151,45.19042 26.666667,60.574219 0,60.574219 v 14.527343 c 26.666667,0 43.333333,-10.675781 50,-30.675781 6.666667,-20 23.333333,-39.1210935 50,-39.1210935 z"
       id="path965"
       inkscape:connector-curvature="0" />
    <path
       inkscape:connector-curvature="0"
       id="path975"
       d="m 100,4.3046875 c -26.666667,0 -43.333333,19.1210935 -50,39.1210935 -6.666667,20 -23.333333,30.675781 -50,30.675781 V 79 C 26.666667,79 43.333333,69 50,49 56.666667,29 73.333333,19 100,19 Z"
       style="display:inline;opacity:0.8;fill:#000000;filter:url(#filter985)" />
    <path
       style="display:inline;fill:#004455"
       d="m 100,5.3046875 c -26.666667,0 -43.333333,19.1210935 -50,39.1210935 -6.666667,20 -23.333333,30.675781 -50,30.675781 V 80 C 26.666667,80 43.333333,70 50,50 56.666667,30 73.333333,20 100,20 Z"
       id="path6129"
       inkscape:connector-curvature="0" />
  </g>
  <g
     inkscape:groupmode="layer"
     id="layer1"
     inkscape:label="upper"
     style="display:none">
    <path
       inkscape:connector-curvature="0"
       style="display:inline;fill:#37abc8"
       id="path972"
       d="m 0,0 v 60.574324 c 26.666667,0 37.262679,-15.383587 40.371622,-25.101351 C 49.477175,7.0113259 73.333333,0.999649 100,0.999649 V 0 Z"
       sodipodi:nodetypes="ccsccc" />
  </g>
  <g
     inkscape:groupmode="layer"
     id="layer2"
     inkscape:label="lower"
     style="display:none">
    <path
       id="path6787"
       d="M 100,19 C 73.333333,19 56.666667,29 50,49 43.333333,69 26.666667,79 0,79 v 20 h 100 z"
       style="opacity:0.8;fill:#000000;fill-opacity:1;stroke:none;stroke-width:0.30000001;stroke-miterlimit:4;stroke-dasharray:none;stroke-opacity:1;filter:url(#filter6789)"
       inkscape:connector-curvature="0" />
    <path
       style="opacity:1;fill:#ff6600;fill-opacity:1;stroke:none;stroke-width:0.30000001;stroke-miterlimit:4;stroke-dasharray:none;stroke-opacity:1"
       d="M 100,20 C 73.333333,20 56.666667,30 50,50 43.333333,70 26.666667,80 0,80 v 20 h 100 z"
       id="rect6218"
       inkscape:connector-curvature="0" />
    <path
       sodipodi:nodetypes="czsscccc"
       style="opacity:0.8;fill:#000000;fill-opacity:1;stroke:none;stroke-width:0.30000001;stroke-miterlimit:4;stroke-dasharray:none;stroke-opacity:1;filter:url(#filter880)"
       d="m 100,20.858108 c -11.737602,0 -18.549888,1.40227 -23.748902,6.406693 -5.199014,5.004423 -3.185883,16.572773 -6.772676,19.031975 C 62.185862,51.296751 57.380004,39.022151 54.054054,49 47.387387,69 26.666667,80.689189 0,80.689189 V 99 h 100 z"
       id="path878"
       inkscape:connector-curvature="0" />
    <path
       inkscape:connector-curvature="0"
       id="path6819"
       d="m 100,21.858108 c -11.737602,0 -18.549888,1.40227 -23.748902,6.406693 -5.199014,5.004423 -3.185883,16.572773 -6.772676,19.031975 C 62.185862,52.296751 57.380004,40.022151 54.054054,50 47.387387,70 26.666667,81.689189 0,81.689189 V 100 h 100 z"
       style="opacity:1;fill:#aa4400;fill-opacity:1;stroke:none;stroke-width:0.30000001;stroke-miterlimit:4;stroke-dasharray:none;stroke-opacity:1"
       sodipodi:nodetypes="czsscccc" />
    <path
       sodipodi:nodetypes="cscccc"
       style="opacity:0.8;fill:#000000;fill-opacity:1;stroke:none;stroke-width:0.30000001;stroke-miterlimit:4;stroke-dasharray:none;stroke-opacity:1;filter:url(#filter888)"
       d="m 100,41.635135 c -26.666667,0 -51.779279,24.02027 -58.445946,44.02027 C 34.887387,105.65541 26.666667,83.898649 0,83.898649 V 99 h 100 z"
       id="path886"
       inkscape:connector-curvature="0" />
    <path
       inkscape:connector-curvature="0"
       id="path884"
       d="m 100,42.635135 c -26.666667,0 -51.779279,24.02027 -58.445946,44.02027 C 34.887387,106.65541 26.666667,84.898649 0,84.898649 V 100 h 100 z"
       style="opacity:1;fill:#803300;fill-opacity:1;stroke:none;stroke-width:0.30000001;stroke-miterlimit:4;stroke-dasharray:none;stroke-opacity:1"
       sodipodi:nodetypes="cscccc" />
  </g>
</svg>
